<svg width="44" height="44" viewBox="0 0 44 44" fill="none" xmlns="http://www.w3.org/2000/svg">
<circle cx="22" cy="22" r="18" fill="#FFDB66"/>
<path d="M28.3252 20.102C29.8391 20.102 31.0664 18.8747 31.0664 17.3608C31.0664 15.8469 29.8391 14.6196 28.3252 14.6196C26.8113 14.6196 25.584 15.8469 25.584 17.3608C25.584 18.8747 26.8113 20.102 28.3252 20.102Z" fill="black"/>
<path d="M15.5332 20.102C17.0471 20.102 18.2744 18.8747 18.2744 17.3608C18.2744 15.8469 17.0471 14.6196 15.5332 14.6196C14.0193 14.6196 12.792 15.8469 12.792 17.3608C12.792 18.8747 14.0193 20.102 15.5332 20.102Z" fill="black"/>
<path d="M21.9116 3.65491C11.824 3.65491 3.65527 11.8419 3.65527 21.9295C3.65527 32.017 11.824 40.2041 21.9116 40.2041C32.0174 40.2041 40.2044 32.017 40.2044 21.9295C40.2044 11.8419 32.0174 3.65491 21.9116 3.65491ZM21.9298 36.5491C13.8525 36.5491 7.31019 30.0068 7.31019 21.9295C7.31019 13.8521 13.8525 7.30982 21.9298 7.30982C30.0072 7.30982 36.5495 13.8521 36.5495 21.9295C36.5495 30.0068 30.0072 36.5491 21.9298 36.5491ZM29.9889 25.3834C29.3493 24.9813 28.4904 25.1824 28.1067 25.822C26.7543 27.9601 24.4517 29.2393 21.9298 29.2393C19.408 29.2393 17.1054 27.9601 15.753 25.8037C15.351 25.1641 14.5104 24.9631 13.8708 25.3651C13.2312 25.7671 13.0301 26.6078 13.4322 27.2474C15.2962 30.2261 18.4577 31.9805 21.9298 31.9805C25.402 31.9805 28.5635 30.2079 30.4275 27.2657C30.8296 26.6261 30.6285 25.7854 29.9889 25.3834Z" fill="black"/>
</svg>
